# xmcd CD database file
#
# Track frame offsets:
#	150
#	29227
#	62597
#	96352
#	125580
#	158402
#	188862
#	225685
#
# Disc length: 3363 seconds
#
# Revision: 0
# Processed by: cddbd v1.5.1PL0 Copyright (c) Steve Scherf et al.
# Submitted via: CDex 1.51
#
DISCID=680d2108
DTITLE=Alan Broadbent - 'Round Midnight
DYEAR=2004
DGENRE=Jazz
TTITLE0=Groovin' High
TTITLE1=Serenata
TTITLE2=Lament
TTITLE3=Die Vereinbarung
TTITLE4=Journey Home
TTITLE5=I'm Old Fashioned
TTITLE6='Round Midnight
TTITLE7=The Man I Love
EXTD=YEAR: 2004
EXTT0=
EXTT1=
EXTT2=
EXTT3=
EXTT4=
EXTT5=
EXTT6=
EXTT7=
PLAYORDER=
